<svg width="22" height="22" viewBox="0 0 22 22" fill="none" xmlns="http://www.w3.org/2000/svg">
<path d="M15.5833 3.20801H6.41668C3.66668 3.20801 1.83334 4.58301 1.83334 7.79134V14.208C1.83334 17.4163 3.66668 18.7913 6.41668 18.7913H15.5833C18.3333 18.7913 20.1667 17.4163 20.1667 14.208V7.79134C20.1667 4.58301 18.3333 3.20801 15.5833 3.20801ZM16.0142 8.79051L13.145 11.0822C12.54 11.568 11.77 11.8063 11 11.8063C10.23 11.8063 9.45084 11.568 8.85501 11.0822L5.98584 8.79051C5.69251 8.55217 5.64668 8.11217 5.87584 7.81884C6.11418 7.52551 6.54501 7.47051 6.83834 7.70884L9.70751 10.0005C10.4042 10.5597 11.5867 10.5597 12.2833 10.0005L15.1525 7.70884C15.4458 7.47051 15.8858 7.51634 16.115 7.81884C16.3533 8.11217 16.3075 8.55217 16.0142 8.79051Z" fill="white"/>
</svg>
