<svg width="22" height="22" viewBox="0 0 22 22" fill="none" xmlns="http://www.w3.org/2000/svg">
<path d="M16.1517 9.85462C15.7575 9.85462 15.4458 9.53379 15.4458 9.14879C15.4458 8.80962 15.1067 8.10379 14.5383 7.48962C13.9792 6.89379 13.365 6.54546 12.8517 6.54546C12.4575 6.54546 12.1458 6.22462 12.1458 5.83962C12.1458 5.45462 12.4667 5.13379 12.8517 5.13379C13.7683 5.13379 14.7308 5.62879 15.5742 6.51796C16.3625 7.35212 16.8667 8.38796 16.8667 9.13962C16.8667 9.53379 16.5458 9.85462 16.1517 9.85462Z" fill="white"/>
<path d="M19.4608 9.85384C19.0667 9.85384 18.755 9.53301 18.755 9.14801C18.755 5.89384 16.1058 3.25384 12.8608 3.25384C12.4667 3.25384 12.155 2.93301 12.155 2.54801C12.155 2.16301 12.4667 1.83301 12.8517 1.83301C16.885 1.83301 20.1667 5.11467 20.1667 9.14801C20.1667 9.53301 19.8458 9.85384 19.4608 9.85384Z" fill="white"/>
<path d="M10.1292 13.7038L8.43334 15.3997C8.07584 15.7572 7.50751 15.7572 7.14084 15.4088C7.04001 15.308 6.93918 15.2163 6.83834 15.1155C5.89418 14.1622 5.04168 13.163 4.28084 12.118C3.52918 11.073 2.92418 10.028 2.48418 8.99218C2.05334 7.94718 1.83334 6.94801 1.83334 5.99467C1.83334 5.37134 1.94334 4.77551 2.16334 4.22551C2.38334 3.66634 2.73168 3.15301 3.21751 2.69467C3.80418 2.11717 4.44584 1.83301 5.12418 1.83301C5.38084 1.83301 5.63751 1.88801 5.86668 1.99801C6.10501 2.10801 6.31584 2.27301 6.48084 2.51134L8.60751 5.50884C8.77251 5.73801 8.89168 5.94884 8.97418 6.15051C9.05668 6.34301 9.10251 6.53551 9.10251 6.70967C9.10251 6.92967 9.03834 7.14967 8.91001 7.36051C8.79084 7.57134 8.61668 7.79134 8.39668 8.01134L7.70001 8.73551C7.59918 8.83634 7.55334 8.95551 7.55334 9.10217C7.55334 9.17551 7.56251 9.23967 7.58084 9.31301C7.60834 9.38634 7.63584 9.44134 7.65418 9.49634C7.81918 9.79884 8.10334 10.193 8.50668 10.6697C8.91918 11.1463 9.35918 11.6322 9.83584 12.118C9.92751 12.2097 10.0283 12.3013 10.12 12.393C10.4867 12.7505 10.4958 13.3372 10.1292 13.7038Z" fill="white"/>
<path d="M20.1392 16.8026C20.1392 17.0593 20.0933 17.3251 20.0017 17.5818C19.9742 17.6551 19.9467 17.7285 19.91 17.8018C19.7542 18.1318 19.5525 18.4435 19.2867 18.7368C18.8375 19.2318 18.3425 19.5893 17.7833 19.8185C17.7742 19.8185 17.765 19.8276 17.7558 19.8276C17.215 20.0476 16.6283 20.1668 15.9958 20.1668C15.0608 20.1668 14.0617 19.9468 13.0075 19.4976C11.9533 19.0485 10.8992 18.4435 9.85415 17.6826C9.49665 17.4168 9.13915 17.1509 8.79999 16.8668L11.7975 13.8693C12.0542 14.0618 12.2833 14.2085 12.4758 14.3093C12.5217 14.3276 12.5767 14.3551 12.6408 14.3826C12.7142 14.4101 12.7875 14.4193 12.87 14.4193C13.0258 14.4193 13.145 14.3643 13.2458 14.2635L13.9425 13.576C14.1717 13.3468 14.3917 13.1726 14.6025 13.0626C14.8133 12.9343 15.0242 12.8701 15.2533 12.8701C15.4275 12.8701 15.6108 12.9068 15.8125 12.9893C16.0142 13.0718 16.225 13.191 16.4542 13.3468L19.4883 15.501C19.7267 15.666 19.8917 15.8584 19.9925 16.0876C20.0842 16.3168 20.1392 16.546 20.1392 16.8026Z" fill="white"/>
</svg>
