<svg width="33" height="32" viewBox="0 0 33 32" fill="none" xmlns="http://www.w3.org/2000/svg">
<path d="M19.2392 2.55719L22.0258 8.13052C22.4058 8.90635 23.4192 9.65052 24.2742 9.79302L29.325 10.6322C32.555 11.1705 33.315 13.5139 30.9875 15.8255L27.0608 19.7522C26.3958 20.4172 26.0317 21.6997 26.2375 22.618L27.3617 27.4789C28.2483 31.3264 26.2058 32.8147 22.8017 30.8039L18.0675 28.0014C17.2125 27.4947 15.8033 27.4947 14.9325 28.0014L10.1983 30.8039C6.81001 32.8147 4.75168 31.3105 5.63834 27.4789L6.76251 22.618C6.96834 21.6997 6.60418 20.4172 5.93918 19.7522L2.01251 15.8255C-0.299158 13.5139 0.445009 11.1705 3.67501 10.6322L8.72584 9.79302C9.56501 9.65052 10.5783 8.90635 10.9583 8.13052L13.745 2.55719C15.265 -0.466979 17.735 -0.466979 19.2392 2.55719Z" fill="#FFB340"/>
</svg>
